<svg xmlns="http://www.w3.org/2000/svg" xmlns:xlink="http://www.w3.org/1999/xlink" viewBox="0 0 750 500"><defs><linearGradient id="Degradado_sin_nombre_16" x1="62.5" y1="-62.5" x2="687.5" y2="562.5" gradientUnits="userSpaceOnUse"><stop offset="0" stop-color="#cef"/><stop offset="0.1" stop-color="#c3e5f8"/><stop offset="0.26" stop-color="#abcbe7"/><stop offset="0.46" stop-color="#83a2c9"/><stop offset="0.71" stop-color="#4c69a1"/><stop offset="0.97" stop-color="#07216e"/><stop offset="1" stop-color="#001a69"/></linearGradient><linearGradient id="Degradado_sin_nombre_16-2" x1="319.3" y1="192.57" x2="430.7" y2="303.98" gradientTransform="translate(285.39 -192.45) rotate(45)" xlink:href="#Degradado_sin_nombre_16"/><linearGradient id="Degradado_sin_nombre_13" x1="8199.62" y1="370.8" x2="8438.46" y2="370.8" gradientTransform="matrix(1, 0, 0, -1, -7758.26, 724.31)" gradientUnits="userSpaceOnUse"><stop offset="0" stop-color="#fafafa"/><stop offset="0.09" stop-color="#fafafa" stop-opacity="0.97"/><stop offset="0.22" stop-color="#fbfbfb" stop-opacity="0.89"/><stop offset="0.38" stop-color="#fbfbfb" stop-opacity="0.76"/><stop offset="0.56" stop-color="#fcfcfc" stop-opacity="0.57"/><stop offset="0.75" stop-color="#fdfdfd" stop-opacity="0.34"/><stop offset="0.96" stop-color="#fff" stop-opacity="0.05"/><stop offset="1" stop-color="#fff" stop-opacity="0"/></linearGradient><linearGradient id="Degradado_sin_nombre_14" x1="8183.2" y1="370.72" x2="8216.05" y2="370.72" gradientTransform="matrix(-1, 0, 0, 1, 8881.15, 11.7)" gradientUnits="userSpaceOnUse"><stop offset="0" stop-color="#3b3bff"/><stop offset="1" stop-color="#7d7dff"/></linearGradient><linearGradient id="Degradado_sin_nombre_2" x1="8190.02" y1="365.85" x2="8209.23" y2="365.85" gradientTransform="matrix(-0.49, -0.87, -0.87, 0.49, 5012.31, 7326.23)" gradientUnits="userSpaceOnUse"><stop offset="0" stop-color="#f2f2f2"/><stop offset="1" stop-color="#fff"/></linearGradient><radialGradient id="Degradado_sin_nombre_3" cx="8198.24" cy="364.72" r="9.05" gradientTransform="matrix(-0.71, -0.71, -0.71, 0.71, 6721.7, 5910.87)" gradientUnits="userSpaceOnUse"><stop offset="0.07" stop-color="#fff"/><stop offset="0.62" stop-color="#f0f0f0"/><stop offset="1" stop-color="#ccc"/></radialGradient><linearGradient id="Degradado_sin_nombre_14-2" x1="413.2" y1="359.21" x2="471.99" y2="359.21" gradientTransform="translate(719.1 -139.25) rotate(79.95)" xlink:href="#Degradado_sin_nombre_14"/><linearGradient id="Degradado_sin_nombre_2-2" x1="418.68" y1="359.21" x2="466.51" y2="359.21" gradientTransform="matrix(1, 0, 0, 1, 0, 0)" xlink:href="#Degradado_sin_nombre_2"/><radialGradient id="Degradado_sin_nombre_3-2" cx="438.36" cy="355.72" r="27.73" gradientTransform="translate(719.34 -139.12) rotate(79.98)" xlink:href="#Degradado_sin_nombre_3"/><linearGradient id="Degradado_sin_nombre_14-3" x1="428.25" y1="358.94" x2="457.76" y2="358.94" gradientTransform="matrix(1, 0, 0, 1, 0, 0)" xlink:href="#Degradado_sin_nombre_14"/><linearGradient id="Degradado_sin_nombre_13-2" x1="8199.83" y1="296.54" x2="8378.01" y2="296.54" gradientTransform="matrix(1, 0, 0, -1, -7697.55, 581.86)" xlink:href="#Degradado_sin_nombre_13"/><linearGradient id="Degradado_sin_nombre_11" x1="8183.41" y1="296.55" x2="8216.26" y2="296.55" gradientTransform="matrix(-1, 0, 0, 1, 8881.15, 11.7)" gradientUnits="userSpaceOnUse"><stop offset="0" stop-color="#4ec0f5"/><stop offset="1" stop-color="#90dbff"/></linearGradient><linearGradient id="Degradado_sin_nombre_2-3" x1="8190.22" y1="291.68" x2="8209.44" y2="291.68" gradientTransform="matrix(-1, 0, 0, 1, 8881.15, 11.7)" xlink:href="#Degradado_sin_nombre_2"/><radialGradient id="Degradado_sin_nombre_3-3" cx="8198.45" cy="290.54" r="9.05" gradientTransform="matrix(-0.71, -0.71, -0.71, 0.71, 6669.25, 5889.14)" xlink:href="#Degradado_sin_nombre_3"/><linearGradient id="Degradado_sin_nombre_11-2" x1="480.03" y1="285.04" x2="538.82" y2="285.04" gradientTransform="translate(708.36 -263.77) rotate(80.7)" xlink:href="#Degradado_sin_nombre_11"/><linearGradient id="Degradado_sin_nombre_2-4" x1="485.51" y1="285.04" x2="533.34" y2="285.04" gradientTransform="translate(145.13 -171.09) rotate(22.16)" xlink:href="#Degradado_sin_nombre_2"/><radialGradient id="Degradado_sin_nombre_3-4" cx="505.19" cy="281.55" r="27.73" gradientTransform="translate(350.76 -276.73) rotate(45)" xlink:href="#Degradado_sin_nombre_3"/><linearGradient id="Degradado_sin_nombre_11-3" x1="500.67" y1="285.04" x2="518.37" y2="285.04" gradientTransform="matrix(1, 0, 0, 1, 0, 0)" xlink:href="#Degradado_sin_nombre_11"/><linearGradient id="Degradado_sin_nombre_13-3" x1="8199.76" y1="137.97" x2="8437.66" y2="137.97" gradientTransform="matrix(1, 0, 0, -1, -7757.16, 275.95)" xlink:href="#Degradado_sin_nombre_13"/><linearGradient id="Degradado_sin_nombre_56" x1="8183.33" y1="137.97" x2="8216.18" y2="137.97" gradientTransform="matrix(-1, 0, 0, 1, 8880.25, 0)" gradientUnits="userSpaceOnUse"><stop offset="0" stop-color="#23bf76"/><stop offset="1" stop-color="#78d8ab"/></linearGradient><linearGradient id="Degradado_sin_nombre_2-5" x1="8190.15" y1="133.11" x2="8209.36" y2="133.11" gradientTransform="matrix(-0.31, -0.95, -0.95, 0.31, 3381.21, 7876.48)" xlink:href="#Degradado_sin_nombre_2"/><radialGradient id="Degradado_sin_nombre_3-5" cx="8198.37" cy="131.97" r="9.05" gradientTransform="matrix(-1, 0, 0, 1, 8880.25, 0)" xlink:href="#Degradado_sin_nombre_3"/><linearGradient id="Degradado_sin_nombre_56-2" x1="413.2" y1="137.97" x2="471.99" y2="137.97" gradientTransform="translate(501.26 -321.9) rotate(79.95)" xlink:href="#Degradado_sin_nombre_56"/><linearGradient id="Degradado_sin_nombre_2-6" x1="418.68" y1="137.97" x2="466.51" y2="137.97" gradientTransform="matrix(1, 0, 0, 1, 0, 0)" xlink:href="#Degradado_sin_nombre_2"/><radialGradient id="Degradado_sin_nombre_3-6" cx="438.36" cy="134.49" r="27.73" gradientTransform="translate(501.47 -321.87) rotate(79.98)" xlink:href="#Degradado_sin_nombre_3"/><linearGradient id="Degradado_sin_nombre_56-3" x1="448.32" y1="137.97" x2="452.98" y2="137.97" gradientTransform="matrix(1, 0, 0, 1, 0, 0)" xlink:href="#Degradado_sin_nombre_56"/><linearGradient id="Degradado_sin_nombre_56-4" x1="442.37" y1="140.45" x2="447.04" y2="140.45" gradientTransform="matrix(1, 0, 0, 1, 0, 0)" xlink:href="#Degradado_sin_nombre_56"/><linearGradient id="Degradado_sin_nombre_56-5" x1="436.43" y1="145.62" x2="441.09" y2="145.62" gradientTransform="matrix(1, 0, 0, 1, 0, 0)" xlink:href="#Degradado_sin_nombre_56"/><linearGradient id="Degradado_sin_nombre_56-6" x1="430.48" y1="147.72" x2="435.15" y2="147.72" gradientTransform="matrix(1, 0, 0, 1, 0, 0)" xlink:href="#Degradado_sin_nombre_56"/><linearGradient id="Degradado_sin_nombre_13-4" x1="8199.76" y1="211.52" x2="8377.93" y2="211.52" gradientTransform="matrix(1, 0, 0, -1, -7697.43, 423.03)" xlink:href="#Degradado_sin_nombre_13"/><linearGradient id="Degradado_sin_nombre_10" x1="8183.33" y1="211.52" x2="8216.18" y2="211.52" gradientTransform="matrix(-1, 0, 0, 1, 8880.25, 0)" gradientUnits="userSpaceOnUse"><stop offset="0" stop-color="#ff4249"/><stop offset="1" stop-color="#ff8488"/></linearGradient><linearGradient id="Degradado_sin_nombre_2-7" x1="8190.15" y1="206.65" x2="8209.36" y2="206.65" gradientTransform="matrix(-1, 0, 0, 1, 8880.25, 0)" xlink:href="#Degradado_sin_nombre_2"/><radialGradient id="Degradado_sin_nombre_3-7" cx="8198.37" cy="205.51" r="9.05" gradientTransform="matrix(-1, 0, 0, 1, 8880.25, 0)" xlink:href="#Degradado_sin_nombre_3"/><linearGradient id="Degradado_sin_nombre_10-2" x1="480.03" y1="211.52" x2="538.82" y2="211.52" gradientTransform="translate(122.67 -181.77) rotate(22.93)" xlink:href="#Degradado_sin_nombre_10"/><linearGradient id="Degradado_sin_nombre_2-8" x1="485.51" y1="211.52" x2="533.34" y2="211.52" gradientTransform="translate(637.26 -325.06) rotate(80.85)" xlink:href="#Degradado_sin_nombre_2"/><radialGradient id="Degradado_sin_nombre_3-8" cx="505.19" cy="208.03" r="27.73" gradientTransform="translate(599.41 -332.69) rotate(76.84)" xlink:href="#Degradado_sin_nombre_3"/><linearGradient id="Degradado_sin_nombre_10-3" x1="498.32" y1="215.53" x2="520.13" y2="215.53" gradientTransform="matrix(1, 0, 0, 1, 0, 0)" xlink:href="#Degradado_sin_nombre_10"/><linearGradient id="Degradado_sin_nombre_10-4" x1="503.62" y1="202.46" x2="514.82" y2="202.46" gradientTransform="matrix(1, 0, 0, 1, 0, 0)" xlink:href="#Degradado_sin_nombre_10"/><linearGradient id="Degradado_sin_nombre_10-5" x1="503.62" y1="199.05" x2="514.82" y2="199.05" gradientTransform="matrix(1, 0, 0, 1, 0, 0)" xlink:href="#Degradado_sin_nombre_10"/><linearGradient id="Degradado_sin_nombre_7" x1="69.43" y1="348.04" x2="312.78" y2="348.04" gradientTransform="translate(-0.17 11.3) rotate(-0.04)" gradientUnits="userSpaceOnUse"><stop offset="0" stop-color="#fafafa"/><stop offset="0.09" stop-color="#fafafa" stop-opacity="0.97"/><stop offset="0.22" stop-color="#fbfbfb" stop-opacity="0.88"/><stop offset="0.38" stop-color="#fbfbfb" stop-opacity="0.74"/><stop offset="0.57" stop-color="#fcfcfc" stop-opacity="0.54"/><stop offset="0.78" stop-color="#fefefe" stop-opacity="0.29"/><stop offset="1" stop-color="#fff" stop-opacity="0"/></linearGradient><linearGradient id="Degradado_sin_nombre_50" x1="53.01" y1="347.96" x2="85.86" y2="347.96" gradientTransform="matrix(1, 0, 0, 1, -0.89, 11.7)" gradientUnits="userSpaceOnUse"><stop offset="0" stop-color="#f02eb3"/><stop offset="1" stop-color="#ff72d3"/></linearGradient><linearGradient id="Degradado_sin_nombre_2-9" x1="59.83" y1="343.09" x2="79.04" y2="343.09" gradientTransform="matrix(0.93, 0.37, -0.37, 0.93, 130.62, 9.93)" xlink:href="#Degradado_sin_nombre_2"/><radialGradient id="Degradado_sin_nombre_3-9" cx="68.05" cy="341.95" r="9.05" gradientTransform="matrix(0.73, 0.68, -0.68, 0.73, 252.4, 56.13)" xlink:href="#Degradado_sin_nombre_3"/><linearGradient id="Degradado_sin_nombre_50-2" x1="286.63" y1="359.21" x2="345.42" y2="359.21" gradientTransform="translate(346.56 -118.25) rotate(45)" xlink:href="#Degradado_sin_nombre_50"/><linearGradient id="Degradado_sin_nombre_2-10" x1="292.11" y1="359.21" x2="339.94" y2="359.21" gradientTransform="matrix(1, 0, 0, 1, 0, 0)" xlink:href="#Degradado_sin_nombre_2"/><radialGradient id="Degradado_sin_nombre_3-10" cx="311.79" cy="355.72" r="27.73" gradientTransform="translate(346.56 -118.25) rotate(45)" xlink:href="#Degradado_sin_nombre_3"/><linearGradient id="Degradado_sin_nombre_50-3" x1="307.24" y1="345.35" x2="323.09" y2="345.35" gradientTransform="translate(630.33 690.7) rotate(-180)" xlink:href="#Degradado_sin_nombre_50"/><linearGradient id="Degradado_sin_nombre_50-4" x1="307.24" y1="373.07" x2="323.09" y2="373.07" gradientTransform="translate(630.33 746.15) rotate(-180)" xlink:href="#Degradado_sin_nombre_50"/><linearGradient id="Degradado_sin_nombre_50-5" x1="308.94" y1="359.21" x2="321.39" y2="359.21" gradientTransform="matrix(1, 0, 0, 1, 0, 0)" xlink:href="#Degradado_sin_nombre_50"/><linearGradient id="Degradado_sin_nombre_7-2" x1="69.52" y1="137.97" x2="310.92" y2="137.97" gradientTransform="matrix(1, 0, 0, 1, 0, 0)" xlink:href="#Degradado_sin_nombre_7"/><linearGradient id="Degradado_sin_nombre_9" x1="53.09" y1="137.97" x2="85.94" y2="137.97" gradientUnits="userSpaceOnUse"><stop offset="0" stop-color="#ffc72e"/><stop offset="1" stop-color="#ffdf75"/></linearGradient><linearGradient id="Degradado_sin_nombre_2-11" x1="59.91" y1="133.11" x2="79.12" y2="133.11" gradientTransform="translate(59.3 -16.71) rotate(23.68)" xlink:href="#Degradado_sin_nombre_2"/><radialGradient id="Degradado_sin_nombre_3-11" cx="68.13" cy="131.97" r="9.05" gradientTransform="matrix(1, 0, 0, 1, 0, 0)" xlink:href="#Degradado_sin_nombre_3"/><linearGradient id="Degradado_sin_nombre_9-2" x1="286.63" y1="137.97" x2="345.42" y2="137.97" gradientTransform="translate(190.12 -183.05) rotate(45)" xlink:href="#Degradado_sin_nombre_9"/><linearGradient id="Degradado_sin_nombre_2-12" x1="292.11" y1="137.97" x2="339.94" y2="137.97" gradientTransform="matrix(1, 0, 0, 1, 0, 0)" xlink:href="#Degradado_sin_nombre_2"/><radialGradient id="Degradado_sin_nombre_3-12" cx="311.79" cy="134.49" r="27.73" gradientTransform="translate(190.12 -183.05) rotate(45)" xlink:href="#Degradado_sin_nombre_3"/><linearGradient id="Degradado_sin_nombre_9-3" x1="305.84" y1="133.26" x2="324.13" y2="133.26" xlink:href="#Degradado_sin_nombre_9"/><linearGradient id="Degradado_sin_nombre_9-4" x1="311.03" y1="147.26" x2="318.94" y2="147.26" xlink:href="#Degradado_sin_nombre_9"/><linearGradient id="Degradado_sin_nombre_9-5" x1="313.39" y1="151.24" x2="316.57" y2="151.24" xlink:href="#Degradado_sin_nombre_9"/><linearGradient id="Degradado_sin_nombre_7-3" x1="69.64" y1="273.78" x2="247.82" y2="273.78" gradientTransform="translate(-0.12 11.25)" xlink:href="#Degradado_sin_nombre_7"/><linearGradient id="Degradado_sin_nombre_6" x1="53.22" y1="273.78" x2="86.07" y2="273.78" gradientTransform="matrix(1, 0, 0, 1, -0.89, 11.7)" gradientUnits="userSpaceOnUse"><stop offset="0" stop-color="#ff382e"/><stop offset="1" stop-color="#ff8e4c"/></linearGradient><linearGradient id="Degradado_sin_nombre_2-13" x1="60.03" y1="268.91" x2="79.25" y2="268.91" gradientTransform="matrix(1, 0, 0, 1, -0.89, 11.7)" xlink:href="#Degradado_sin_nombre_2"/><radialGradient id="Degradado_sin_nombre_3-13" cx="68.26" cy="267.78" r="9.05" gradientTransform="matrix(0.73, 0.68, -0.68, 0.73, 201.72, 36.12)" xlink:href="#Degradado_sin_nombre_3"/><linearGradient id="Degradado_sin_nombre_6-2" x1="223.48" y1="285.04" x2="282.27" y2="285.04" gradientTransform="translate(471.25 -27.22) rotate(76.55)" xlink:href="#Degradado_sin_nombre_6"/><linearGradient id="Degradado_sin_nombre_2-14" x1="228.96" y1="285.04" x2="276.79" y2="285.04" gradientTransform="translate(471.43 -27.1) rotate(76.58)" xlink:href="#Degradado_sin_nombre_2"/><radialGradient id="Degradado_sin_nombre_3-14" cx="248.64" cy="281.55" r="27.73" gradientTransform="translate(471.51 -27.04) rotate(76.59)" xlink:href="#Degradado_sin_nombre_3"/><linearGradient id="Degradado_sin_nombre_6-3" x1="246.1" y1="281" x2="266.78" y2="281" gradientTransform="matrix(1, 0, 0, 1, 0, 0)" xlink:href="#Degradado_sin_nombre_6"/><linearGradient id="Degradado_sin_nombre_8" x1="251.15" y1="281" x2="261.73" y2="281" gradientUnits="userSpaceOnUse"><stop offset="0" stop-color="#ff892e"/><stop offset="1" stop-color="#ffc44c"/></linearGradient><linearGradient id="Degradado_sin_nombre_8-2" x1="254.38" y1="281" x2="258.5" y2="281" xlink:href="#Degradado_sin_nombre_8"/><linearGradient id="Degradado_sin_nombre_6-4" x1="246.1" y1="281" x2="266.78" y2="281" gradientTransform="matrix(1, 0, 0, 1, 0, 0)" xlink:href="#Degradado_sin_nombre_6"/><linearGradient id="Degradado_sin_nombre_6-5" x1="240.24" y1="295.54" x2="253.44" y2="295.54" gradientTransform="matrix(1, 0, 0, 1, 0, 0)" xlink:href="#Degradado_sin_nombre_6"/><linearGradient id="Degradado_sin_nombre_8-3" x1="243.38" y1="295.54" x2="250.3" y2="295.54" xlink:href="#Degradado_sin_nombre_8"/><linearGradient id="Degradado_sin_nombre_8-4" x1="245.49" y1="295.54" x2="248.19" y2="295.54" xlink:href="#Degradado_sin_nombre_8"/><linearGradient id="Degradado_sin_nombre_6-6" x1="240.24" y1="295.54" x2="253.44" y2="295.54" gradientTransform="matrix(1, 0, 0, 1, 0, 0)" xlink:href="#Degradado_sin_nombre_6"/><linearGradient id="Degradado_sin_nombre_7-4" x1="69.52" y1="211.52" x2="247.69" y2="211.52" gradientTransform="matrix(1, 0, 0, 1, 0, 0)" xlink:href="#Degradado_sin_nombre_7"/><linearGradient id="Degradado_sin_nombre_54" x1="53.09" y1="211.52" x2="85.94" y2="211.52" xlink:href="#Degradado_sin_nombre_8"/><linearGradient id="Degradado_sin_nombre_2-15" x1="59.91" y1="206.65" x2="79.12" y2="206.65" gradientTransform="matrix(1, 0, 0, 1, 0, 0)" xlink:href="#Degradado_sin_nombre_2"/><radialGradient id="Degradado_sin_nombre_3-15" cx="68.13" cy="205.51" r="9.05" gradientTransform="matrix(1, 0, 0, 1, 0, 0)" xlink:href="#Degradado_sin_nombre_3"/><linearGradient id="Degradado_sin_nombre_54-2" x1="223.48" y1="211.52" x2="282.27" y2="211.52" gradientTransform="translate(223.63 -116.86) rotate(45)" xlink:href="#Degradado_sin_nombre_8"/><linearGradient id="Degradado_sin_nombre_2-16" x1="228.96" y1="211.52" x2="276.79" y2="211.52" gradientTransform="translate(223.63 -116.86) rotate(45)" xlink:href="#Degradado_sin_nombre_2"/><radialGradient id="Degradado_sin_nombre_3-16" cx="248.64" cy="208.03" r="27.73" gradientTransform="translate(223.63 -116.86) rotate(45)" xlink:href="#Degradado_sin_nombre_3"/><linearGradient id="Degradado_sin_nombre_54-3" x1="243.34" y1="211.76" x2="259.75" y2="211.76" xlink:href="#Degradado_sin_nombre_8"/><linearGradient id="Degradado_sin_nombre_54-4" x1="245.73" y1="205.46" x2="257.55" y2="205.46" xlink:href="#Degradado_sin_nombre_8"/><linearGradient id="Degradado_sin_nombre_54-5" x1="245.73" y1="210.88" x2="257.55" y2="210.88" xlink:href="#Degradado_sin_nombre_8"/></defs><g style="isolation:isolate"><g id="BACKGROUND"><rect width="750" height="500" fill="url(#Degradado_sin_nombre_16)" style="mix-blend-mode:multiply"/></g><g id="OBJECTS"><circle cx="375" cy="248.28" r="78.78" transform="translate(-65.72 337.88) rotate(-45)" fill="url(#Degradado_sin_nombre_16-2)" style="mix-blend-mode:multiply"/><circle cx="375" cy="248.28" r="81.13" transform="translate(-65.72 337.88) rotate(-45)" fill="none" stroke="#fff" stroke-miterlimit="10" stroke-width="2"/><text transform="translate(322.34 248.28) scale(0.89 1)" font-size="13.02" fill="#fff" font-family="Arcon-Regular, Arcon Regular" letter-spacing="0.1em">W<tspan x="12.26" y="0" letter-spacing="0.09em">h</tspan><tspan x="20.62" y="0" letter-spacing="0.1em">y Choosing </tspan><tspan x="98.39" y="0" letter-spacing="0.09em">U</tspan><tspan x="108.04" y="0" letter-spacing="0.1em">s?</tspan></text><text transform="translate(341.82 273.11) scale(1.09 1)" font-size="13.01" fill="#fff" font-family="Arcon-Regular, Arcon Regular" letter-spacing="0.1em">B<tspan x="8.4" y="0" letter-spacing="0.1em">ecaus</tspan><tspan x="45.84" y="0" letter-spacing="0.09em">e</tspan><tspan x="53.5" y="0" letter-spacing="0.1em">...</tspan></text><text transform="translate(352.8 226.28) scale(1.02 1)" font-size="9.3" fill="#fff" font-family="Arcon-Regular, Arcon Regular">DSEOM <tspan x="31.21" y="0" letter-spacing="0em">L</tspan><tspan x="35.56" y="0" letter-spacing="-0.01em">t</tspan><tspan x="38.58" y="0" letter-spacing="0em">d</tspan></text><path d="M322.34,285.42h.43v2.95h1.41v.36h-1.84Z" fill="#fff"/><path d="M327.22,287.52a1.16,1.16,0,0,1-1.19,1.26,1.13,1.13,0,0,1-1.14-1.22,1.17,1.17,0,0,1,1.18-1.26A1.12,1.12,0,0,1,327.22,287.52Zm-1.89,0c0,.52.3.91.72.91s.73-.39.73-.92-.2-.92-.72-.92S325.33,287.09,325.33,287.55Z" fill="#fff"/><path d="M328.25,287.09c0-.28,0-.52,0-.74h.38l0,.47h0a.71.71,0,0,1,.66-.52h.12v.41h-.15a.61.61,0,0,0-.58.55,1.23,1.23,0,0,0,0,.2v1.27h-.43Z" fill="#fff"/><path d="M330.54,287.62a.77.77,0,0,0,.82.83,1.53,1.53,0,0,0,.66-.13l.07.31a1.88,1.88,0,0,1-.79.15,1.11,1.11,0,0,1-1.17-1.2,1.15,1.15,0,0,1,1.12-1.28,1,1,0,0,1,1,1.12.88.88,0,0,1,0,.2Zm1.27-.31a.61.61,0,0,0-.6-.7.71.71,0,0,0-.66.7Z" fill="#fff"/><path d="M333.25,287c0-.25,0-.45,0-.65h.37l0,.39h0a.81.81,0,0,1,.75-.44.71.71,0,0,1,.67.48h0a.91.91,0,0,1,.26-.31.82.82,0,0,1,.53-.17c.31,0,.78.2.78,1v1.4h-.42v-1.35c0-.45-.17-.73-.52-.73a.56.56,0,0,0-.51.39.73.73,0,0,0,0,.22v1.47h-.43v-1.42c0-.38-.16-.66-.49-.66a.6.6,0,0,0-.54.43.78.78,0,0,0,0,.22v1.43h-.43Z" fill="#fff"/><path d="M339.86,285.68a.27.27,0,0,1-.28.27.27.27,0,1,1,.28-.27Zm-.48,3.05v-2.38h.43v2.38Z" fill="#fff"/><path d="M341,287.13c0-.31,0-.55,0-.78h.38l0,.41h0a.94.94,0,0,1,.85-.46,1.08,1.08,0,0,1,1,1.21,1.12,1.12,0,0,1-1.08,1.27.84.84,0,0,1-.74-.37h0v1.29H341Zm.42.63a.9.9,0,0,0,0,.18.67.67,0,0,0,.65.51c.46,0,.72-.38.72-.92s-.25-.89-.7-.89a.7.7,0,0,0-.66.54,1,1,0,0,0,0,.17Z" fill="#fff"/><path d="M344.24,288.29a1.2,1.2,0,0,0,.57.17c.32,0,.46-.16.46-.35s-.12-.32-.44-.44-.63-.39-.63-.67a.73.73,0,0,1,.82-.7,1.19,1.19,0,0,1,.59.15l-.11.31a.89.89,0,0,0-.49-.14.34.34,0,0,0-.39.33c0,.19.14.28.45.4s.62.36.62.72-.32.71-.89.71a1.35,1.35,0,0,1-.67-.16Z" fill="#fff"/><path d="M348.73,288.08a6.43,6.43,0,0,0,0,.65h-.38l0-.39h0a.89.89,0,0,1-.79.44c-.37,0-.82-.2-.82-1v-1.39h.44v1.32c0,.45.13.76.53.76a.63.63,0,0,0,.57-.4.72.72,0,0,0,0-.22v-1.46h.43Z" fill="#fff"/><path d="M349.94,287c0-.25,0-.45,0-.65h.38l0,.39h0a.81.81,0,0,1,.75-.44.7.7,0,0,1,.67.48h0a.83.83,0,0,1,.27-.31.77.77,0,0,1,.52-.17c.32,0,.78.2.78,1v1.4h-.42v-1.35c0-.45-.17-.73-.52-.73a.57.57,0,0,0-.51.39.73.73,0,0,0,0,.22v1.47h-.42v-1.42c0-.38-.17-.66-.5-.66a.6.6,0,0,0-.54.43.78.78,0,0,0,0,.22v1.43h-.42Z" fill="#fff"/><path d="M358.11,285.24v2.88c0,.21,0,.45,0,.61h-.39l0-.41h0a.88.88,0,0,1-.81.46,1.08,1.08,0,0,1-1-1.2A1.15,1.15,0,0,1,357,286.3a.81.81,0,0,1,.72.36h0v-1.42Zm-.43,2.08a1.1,1.1,0,0,0,0-.18.64.64,0,0,0-.63-.5c-.44,0-.71.39-.71.92s.24.88.7.88a.67.67,0,0,0,.64-.52,1.11,1.11,0,0,0,0-.19Z" fill="#fff"/><path d="M361.47,287.52a1.16,1.16,0,0,1-1.18,1.26,1.13,1.13,0,0,1-1.14-1.22,1.16,1.16,0,0,1,1.18-1.26A1.12,1.12,0,0,1,361.47,287.52Zm-1.89,0c0,.52.3.91.73.91s.72-.39.72-.92-.2-.92-.71-.92S359.58,287.09,359.58,287.55Z" fill="#fff"/><path d="M362.51,285.24h.43v3.49h-.43Z" fill="#fff"/><path d="M366.31,287.52a1.16,1.16,0,0,1-1.19,1.26,1.12,1.12,0,0,1-1.13-1.22,1.16,1.16,0,0,1,1.18-1.26A1.12,1.12,0,0,1,366.31,287.52Zm-1.89,0c0,.52.3.91.73.91s.72-.39.72-.92-.2-.92-.71-.92S364.42,287.09,364.42,287.55Z" fill="#fff"/><path d="M367.34,287.09c0-.28,0-.52,0-.74h.37l0,.47h0a.72.72,0,0,1,.66-.52h.12v.41h-.15a.61.61,0,0,0-.58.55,1.23,1.23,0,0,0,0,.2v1.27h-.43Z" fill="#fff"/><path d="M370.92,288.29a1.13,1.13,0,0,0,.57.17c.31,0,.46-.16.46-.35s-.12-.32-.44-.44-.63-.39-.63-.67a.73.73,0,0,1,.82-.7,1.15,1.15,0,0,1,.58.15l-.11.31a.88.88,0,0,0-.48-.14c-.26,0-.4.15-.4.33s.14.28.45.4.63.36.63.72-.33.71-.89.71a1.33,1.33,0,0,1-.67-.16Z" fill="#fff"/><path d="M373.89,285.68a.25.25,0,0,1-.27.27.27.27,0,0,1,0-.54A.25.25,0,0,1,373.89,285.68Zm-.48,3.05v-2.38h.43v2.38Z" fill="#fff"/><path d="M375.57,285.67v.68h.62v.33h-.62V288c0,.3.09.47.33.47a1.31,1.31,0,0,0,.25,0l0,.32a1.22,1.22,0,0,1-.39.06.57.57,0,0,1-.46-.18.85.85,0,0,1-.17-.62v-1.3h-.37v-.33h.37v-.57Z" fill="#fff"/><path d="M380,288.73l0-.3h0a.88.88,0,0,1-.73.35.68.68,0,0,1-.73-.68c0-.57.52-.89,1.43-.88v-.05a.49.49,0,0,0-.54-.55,1.21,1.21,0,0,0-.61.17l-.1-.28a1.43,1.43,0,0,1,.78-.21c.73,0,.9.49.9,1v.89a3.25,3.25,0,0,0,0,.57Zm-.07-1.21c-.47,0-1,.07-1,.53a.38.38,0,0,0,.4.41.6.6,0,0,0,.58-.39.78.78,0,0,0,0-.14Z" fill="#fff"/><path d="M381.56,287c0-.25,0-.45,0-.65h.38l0,.39h0a.83.83,0,0,1,.75-.44.69.69,0,0,1,.67.48h0a.93.93,0,0,1,.27-.31.79.79,0,0,1,.52-.17c.32,0,.79.2.79,1v1.4h-.43v-1.35c0-.45-.16-.73-.51-.73a.55.55,0,0,0-.51.39.72.72,0,0,0,0,.22v1.47h-.42v-1.42c0-.38-.17-.66-.5-.66a.59.59,0,0,0-.53.43.54.54,0,0,0,0,.22v1.43h-.42Z" fill="#fff"/><path d="M386.39,287.62a.76.76,0,0,0,.82.83,1.51,1.51,0,0,0,.65-.13l.08.31a1.91,1.91,0,0,1-.79.15,1.1,1.1,0,0,1-1.17-1.2,1.15,1.15,0,0,1,1.11-1.28,1,1,0,0,1,1,1.12c0,.09,0,.16,0,.2Zm1.27-.31a.62.62,0,0,0-.6-.7.72.72,0,0,0-.67.7Z" fill="#fff"/><path d="M389.62,285.67v.68h.62v.33h-.62V288c0,.3.09.47.33.47a1.31,1.31,0,0,0,.25,0l0,.32a1.22,1.22,0,0,1-.39.06.57.57,0,0,1-.46-.18.85.85,0,0,1-.17-.62v-1.3h-.37v-.33h.37v-.57Z" fill="#fff"/><path d="M390.92,289.33a7.39,7.39,0,0,0,.3-1.17l.48-.05a5.88,5.88,0,0,1-.47,1.2Z" fill="#fff"/><path d="M395.94,288.64a1.54,1.54,0,0,1-.68.14,1.13,1.13,0,0,1-1.19-1.21,1.21,1.21,0,0,1,1.28-1.27,1.45,1.45,0,0,1,.6.13l-.1.33a1,1,0,0,0-.5-.11.9.9,0,0,0,0,1.79,1.35,1.35,0,0,0,.54-.12Z" fill="#fff"/><path d="M399.06,287.52a1.16,1.16,0,0,1-1.19,1.26,1.13,1.13,0,0,1-1.14-1.22,1.16,1.16,0,0,1,1.18-1.26A1.12,1.12,0,0,1,399.06,287.52Zm-1.89,0c0,.52.3.91.72.91s.73-.39.73-.92-.2-.92-.72-.92S397.17,287.09,397.17,287.55Z" fill="#fff"/><path d="M400.09,287c0-.25,0-.45,0-.65h.39l0,.4h0a.87.87,0,0,1,.79-.45c.33,0,.84.2.84,1v1.42h-.43v-1.37c0-.38-.15-.7-.55-.7a.63.63,0,0,0-.61.64v1.43h-.44Z" fill="#fff"/><path d="M403.25,288.29a1.2,1.2,0,0,0,.57.17c.32,0,.46-.16.46-.35s-.12-.32-.44-.44-.63-.39-.63-.67a.73.73,0,0,1,.82-.7,1.19,1.19,0,0,1,.59.15l-.11.31a.89.89,0,0,0-.49-.14.34.34,0,0,0-.39.33c0,.19.14.28.45.4s.62.36.62.72-.32.71-.89.71a1.35,1.35,0,0,1-.67-.16Z" fill="#fff"/><path d="M406,287.62a.76.76,0,0,0,.81.83,1.53,1.53,0,0,0,.66-.13l.08.31a2,2,0,0,1-.79.15,1.1,1.1,0,0,1-1.17-1.2,1.15,1.15,0,0,1,1.11-1.28,1,1,0,0,1,1,1.12c0,.09,0,.16,0,.2Zm1.27-.31a.62.62,0,0,0-.6-.7.72.72,0,0,0-.67.7Z" fill="#fff"/><path d="M410.4,288.64a1.63,1.63,0,0,1-.69.14,1.13,1.13,0,0,1-1.18-1.21,1.21,1.21,0,0,1,1.28-1.27,1.45,1.45,0,0,1,.6.13l-.1.33a1,1,0,0,0-.5-.11.9.9,0,0,0,0,1.79,1.25,1.25,0,0,0,.53-.12Z" fill="#fff"/><path d="M412,285.67v.68h.62v.33H412V288c0,.3.08.47.32.47a1.2,1.2,0,0,0,.25,0l0,.32a1.16,1.16,0,0,1-.38.06.6.6,0,0,1-.47-.18.9.9,0,0,1-.17-.62v-1.3h-.36v-.33h.36v-.57Z" fill="#fff"/><path d="M413.78,287.62a.77.77,0,0,0,.82.83,1.53,1.53,0,0,0,.66-.13l.07.31a1.88,1.88,0,0,1-.79.15,1.11,1.11,0,0,1-1.17-1.2,1.15,1.15,0,0,1,1.12-1.28,1,1,0,0,1,1,1.12.88.88,0,0,1,0,.2Zm1.27-.31a.61.61,0,0,0-.6-.7.71.71,0,0,0-.66.7Z" fill="#fff"/><path d="M417,285.67v.68h.62v.33H417V288c0,.3.08.47.32.47a1.2,1.2,0,0,0,.25,0l0,.32a1.16,1.16,0,0,1-.38.06.6.6,0,0,1-.47-.18.9.9,0,0,1-.17-.62v-1.3h-.36v-.33h.36v-.57Z" fill="#fff"/><path d="M420.6,288.08c0,.25,0,.46,0,.65h-.38l0-.39h0a.88.88,0,0,1-.78.44c-.38,0-.82-.2-.82-1v-1.39H419v1.32c0,.45.14.76.53.76a.63.63,0,0,0,.57-.4.51.51,0,0,0,0-.22v-1.46h.43Z" fill="#fff"/><path d="M422.05,287.62a.76.76,0,0,0,.82.83,1.56,1.56,0,0,0,.66-.13l.07.31a1.88,1.88,0,0,1-.79.15,1.11,1.11,0,0,1-1.17-1.2,1.15,1.15,0,0,1,1.11-1.28,1,1,0,0,1,1,1.12.88.88,0,0,1,0,.2Zm1.27-.31a.62.62,0,0,0-.6-.7.71.71,0,0,0-.66.7Z" fill="#fff"/><path d="M424.76,287.09c0-.28,0-.52,0-.74h.38l0,.47h0a.69.69,0,0,1,.65-.52h.13v.41h-.15a.61.61,0,0,0-.58.55,1.23,1.23,0,0,0,0,.2v1.27h-.43Z" fill="#fff"/><path d="M325.65,294.62l0-.29h0a.92.92,0,0,1-.73.35.68.68,0,0,1-.73-.68c0-.58.51-.89,1.43-.89v-.05a.49.49,0,0,0-.54-.55,1.18,1.18,0,0,0-.62.18l-.1-.29a1.59,1.59,0,0,1,.79-.21c.72,0,.9.5.9,1v.88a3.25,3.25,0,0,0,0,.57Zm-.07-1.21c-.47,0-1,.08-1,.54a.38.38,0,0,0,.4.41.6.6,0,0,0,.58-.4.59.59,0,0,0,0-.14Z" fill="#fff"/><path d="M329.24,291.14V294c0,.21,0,.45,0,.61h-.39l0-.41h0a.87.87,0,0,1-.81.47,1.08,1.08,0,0,1-1-1.21,1.13,1.13,0,0,1,1.06-1.28.8.8,0,0,1,.72.37h0v-1.42Zm-.43,2.07a1.24,1.24,0,0,0,0-.18.64.64,0,0,0-.62-.5c-.45,0-.72.39-.72.92s.24.88.71.88a.64.64,0,0,0,.63-.52,1,1,0,0,0,0-.18Z" fill="#fff"/><path d="M330.93,291.58a.27.27,0,0,1-.53,0,.26.26,0,0,1,.27-.27A.25.25,0,0,1,330.93,291.58Zm-.48,3v-2.37h.43v2.37Z" fill="#fff"/><path d="M332.09,293c0-.3,0-.55,0-.77h.39l0,.4h0a1,1,0,0,1,.84-.46,1.08,1.08,0,0,1,1,1.21,1.12,1.12,0,0,1-1.08,1.28.84.84,0,0,1-.73-.37h0v1.29h-.43Zm.43.64a.88.88,0,0,0,0,.17.67.67,0,0,0,.65.51c.45,0,.72-.37.72-.92s-.25-.88-.71-.88a.69.69,0,0,0-.65.53.57.57,0,0,0,0,.18Z" fill="#fff"/><path d="M335.86,291.58a.26.26,0,0,1-.28.26.25.25,0,0,1-.26-.26.27.27,0,0,1,.27-.27A.26.26,0,0,1,335.86,291.58Zm-.48,3v-2.37h.43v2.37Z" fill="#fff"/><path d="M337,294.18a1.07,1.07,0,0,0,.57.17c.31,0,.46-.15.46-.35s-.12-.32-.44-.44-.63-.38-.63-.67a.74.74,0,0,1,.82-.7,1.15,1.15,0,0,1,.58.15l-.1.31a1.07,1.07,0,0,0-.49-.13c-.26,0-.4.15-.4.32s.14.29.45.4.63.37.63.72-.33.71-.89.71a1.35,1.35,0,0,1-.67-.16Z" fill="#fff"/><path d="M341.15,294.54a1.57,1.57,0,0,1-.68.13,1.13,1.13,0,0,1-1.19-1.21,1.21,1.21,0,0,1,1.28-1.26,1.47,1.47,0,0,1,.6.12l-.1.33a1.12,1.12,0,0,0-.5-.11.9.9,0,0,0,0,1.79,1.2,1.2,0,0,0,.54-.12Z" fill="#fff"/><path d="M342.63,291.58a.26.26,0,0,1-.28.26.25.25,0,0,1-.26-.26.27.27,0,0,1,.27-.27A.26.26,0,0,1,342.63,291.58Zm-.48,3v-2.37h.43v2.37Z" fill="#fff"/><path d="M343.79,292.89c0-.25,0-.45,0-.64h.38l0,.39h0a.88.88,0,0,1,.79-.45c.33,0,.84.2.84,1v1.41h-.43v-1.37c0-.38-.14-.7-.55-.7a.61.61,0,0,0-.58.44.66.66,0,0,0,0,.21v1.42h-.43Z" fill="#fff"/><path d="M349.05,292.25c0,.17,0,.36,0,.65v1.38a1.38,1.38,0,0,1-.34,1.09,1.27,1.27,0,0,1-.86.28,1.59,1.59,0,0,1-.79-.19l.11-.33a1.39,1.39,0,0,0,.69.18c.45,0,.77-.23.77-.83v-.26h0a.85.85,0,0,1-.76.4,1.07,1.07,0,0,1-1-1.16,1.15,1.15,0,0,1,1.07-1.27.8.8,0,0,1,.75.42h0v-.36Zm-.44.94a.6.6,0,0,0,0-.2.63.63,0,0,0-.6-.46c-.42,0-.71.35-.71.9s.23.86.7.86a.63.63,0,0,0,.6-.45.59.59,0,0,0,0-.23Z" fill="#fff"/><path d="M352,293.51a.77.77,0,0,0,.82.83,1.55,1.55,0,0,0,.66-.12l.07.31a1.91,1.91,0,0,1-.79.14,1.1,1.1,0,0,1-1.17-1.19,1.16,1.16,0,0,1,1.12-1.29,1,1,0,0,1,1,1.12.88.88,0,0,1,0,.2Zm1.27-.3a.61.61,0,0,0-.6-.71.72.72,0,0,0-.66.71Z" fill="#fff"/><path d="M354.73,291.14h.43v3.48h-.43Z" fill="#fff"/><path d="M356.86,291.58a.26.26,0,0,1-.28.26.25.25,0,0,1-.26-.26.27.27,0,0,1,.27-.27A.26.26,0,0,1,356.86,291.58Zm-.48,3v-2.37h.43v2.37Z" fill="#fff"/><path d="M358.54,291.56v.69h.62v.33h-.62v1.28c0,.29.08.46.32.46a.77.77,0,0,0,.25,0l0,.33a1.16,1.16,0,0,1-.38.05.61.61,0,0,1-.47-.18.9.9,0,0,1-.16-.62v-1.29h-.37v-.33h.37v-.57Z" fill="#fff"/><path d="M359.84,295.23a6.57,6.57,0,0,0,.29-1.18l.49,0a6.4,6.4,0,0,1-.47,1.19Z" fill="#fff"/><path d="M363.1,294.18a1.07,1.07,0,0,0,.57.17c.32,0,.46-.15.46-.35s-.12-.32-.44-.44-.63-.38-.63-.67a.74.74,0,0,1,.82-.7,1.22,1.22,0,0,1,.59.15l-.11.31a1.07,1.07,0,0,0-.49-.13c-.25,0-.4.15-.4.32s.15.29.46.4.62.37.62.72-.32.71-.89.71a1.35,1.35,0,0,1-.67-.16Z" fill="#fff"/><path d="M365.84,293.51a.76.76,0,0,0,.81.83,1.55,1.55,0,0,0,.66-.12l.07.31a1.91,1.91,0,0,1-.79.14,1.1,1.1,0,0,1-1.17-1.19,1.16,1.16,0,0,1,1.12-1.29,1,1,0,0,1,1,1.12c0,.09,0,.16,0,.2Zm1.26-.3a.61.61,0,0,0-.6-.71c-.43,0-.62.41-.66.71Z" fill="#fff"/><path d="M370.6,291.14V294c0,.21,0,.45,0,.61h-.39l0-.41h0a.87.87,0,0,1-.81.47,1.08,1.08,0,0,1-1-1.21,1.13,1.13,0,0,1,1.06-1.28.8.8,0,0,1,.72.37h0v-1.42Zm-.43,2.07a.58.58,0,0,0,0-.18.64.64,0,0,0-.62-.5c-.45,0-.72.39-.72.92s.24.88.71.88a.64.64,0,0,0,.63-.52.52.52,0,0,0,0-.18Z" fill="#fff"/><path d="M375.4,291.14V294a5.72,5.72,0,0,0,0,.61H375l0-.41h0a.87.87,0,0,1-.81.47,1.09,1.09,0,0,1-1-1.21,1.15,1.15,0,0,1,1.07-1.28.78.78,0,0,1,.71.37h0v-1.42Zm-.44,2.07a.58.58,0,0,0,0-.18.64.64,0,0,0-.62-.5c-.45,0-.71.39-.71.92s.23.88.7.88a.64.64,0,0,0,.63-.52.52.52,0,0,0,0-.18Z" fill="#fff"/><path d="M377.08,291.58a.24.24,0,0,1-.27.26.25.25,0,0,1-.26-.26.26.26,0,0,1,.27-.27A.25.25,0,0,1,377.08,291.58Zm-.48,3v-2.37H377v2.37Z" fill="#fff"/><path d="M379.56,294.62l0-.29h0a.9.9,0,0,1-.72.35.68.68,0,0,1-.73-.68c0-.58.51-.89,1.43-.89v-.05a.5.5,0,0,0-.54-.55,1.18,1.18,0,0,0-.62.18l-.1-.29a1.55,1.55,0,0,1,.78-.21c.73,0,.91.5.91,1v.88a3.33,3.33,0,0,0,0,.57Zm-.06-1.21c-.47,0-1,.08-1,.54a.38.38,0,0,0,.41.41.59.59,0,0,0,.57-.4.32.32,0,0,0,0-.14Z" fill="#fff"/><path d="M381.1,292.89a6.22,6.22,0,0,0,0-.64h.38l0,.38h0a.8.8,0,0,1,.74-.44.72.72,0,0,1,.68.48h0a.9.9,0,0,1,.26-.31.8.8,0,0,1,.53-.17c.31,0,.78.21.78,1v1.4h-.42v-1.34c0-.46-.17-.73-.52-.73a.55.55,0,0,0-.51.39.72.72,0,0,0,0,.22v1.46h-.42V293.2c0-.38-.16-.65-.49-.65a.59.59,0,0,0-.54.43.71.71,0,0,0,0,.21v1.43h-.43Z" fill="#fff"/><path d="M387.22,292.89a6.22,6.22,0,0,0,0-.64h.39l0,.39h0a.87.87,0,0,1,.79-.45c.33,0,.84.2.84,1v1.41h-.43v-1.37c0-.38-.15-.7-.55-.7a.61.61,0,0,0-.58.44.66.66,0,0,0,0,.21v1.42h-.44Z" fill="#fff"/><path d="M392.59,293.42a1.16,1.16,0,0,1-1.18,1.26,1.13,1.13,0,0,1-1.14-1.22,1.16,1.16,0,0,1,1.18-1.27A1.13,1.13,0,0,1,392.59,293.42Zm-1.88,0c0,.52.3.91.72.91s.72-.38.72-.92-.2-.91-.71-.91S390.71,293,390.71,293.44Z" fill="#fff"/><path d="M393.63,292.89c0-.25,0-.45,0-.64H394l0,.39h0a.86.86,0,0,1,.78-.45c.33,0,.84.2.84,1v1.41h-.43v-1.37c0-.38-.14-.7-.55-.7a.62.62,0,0,0-.58.44.66.66,0,0,0,0,.21v1.42h-.43Z" fill="#fff"/><path d="M398.84,294a6.22,6.22,0,0,0,0,.64h-.39l0-.38h0a.89.89,0,0,1-.79.44c-.37,0-.82-.21-.82-1v-1.39h.43v1.31c0,.46.14.76.53.76a.64.64,0,0,0,.58-.39.78.78,0,0,0,0-.22v-1.46h.44Z" fill="#fff"/><path d="M400,292.89a6.22,6.22,0,0,0,0-.64h.38l0,.38h0a.8.8,0,0,1,.74-.44.72.72,0,0,1,.68.48h0a.9.9,0,0,1,.26-.31.8.8,0,0,1,.53-.17c.31,0,.78.21.78,1v1.4H403v-1.34c0-.46-.17-.73-.52-.73a.55.55,0,0,0-.51.39.73.73,0,0,0,0,.22v1.46h-.43V293.2c0-.38-.16-.65-.49-.65a.59.59,0,0,0-.54.43.71.71,0,0,0,0,.21v1.43H400Z" fill="#fff"/><path d="M404.63,292.89a6.22,6.22,0,0,0,0-.64H405l0,.38h0a.8.8,0,0,1,.74-.44.72.72,0,0,1,.68.48h0a.9.9,0,0,1,.26-.31.8.8,0,0,1,.53-.17c.31,0,.78.21.78,1v1.4h-.42v-1.34c0-.46-.17-.73-.52-.73a.55.55,0,0,0-.51.39.72.72,0,0,0,0,.22v1.46h-.42V293.2c0-.38-.16-.65-.49-.65a.59.59,0,0,0-.54.43.71.71,0,0,0,0,.21v1.43h-.43Z" fill="#fff"/><path d="M409.31,292.25l.52,1.4c.06.16.12.35.16.49h0c0-.14.09-.33.15-.5l.47-1.39h.46l-.65,1.69a3.5,3.5,0,0,1-.82,1.49,1.13,1.13,0,0,1-.53.28l-.11-.36a1.26,1.26,0,0,0,.75-.7.22.22,0,0,0,0-.1.36.36,0,0,0,0-.11l-.88-2.19Z" fill="#fff"/><path d="M413.49,292.89a6.22,6.22,0,0,0,0-.64h.39l0,.39h0a.88.88,0,0,1,.79-.45c.33,0,.84.2.84,1v1.41h-.43v-1.37c0-.38-.15-.7-.55-.7a.61.61,0,0,0-.58.44.66.66,0,0,0,0,.21v1.42h-.44Z" fill="#fff"/><path d="M417.19,291.58a.24.24,0,0,1-.27.26.25.25,0,0,1-.26-.26.26.26,0,0,1,.27-.27A.25.25,0,0,1,417.19,291.58Zm-.48,3v-2.37h.43v2.37Z" fill="#fff"/><path d="M418.33,294.62c0-.16,0-.4,0-.61v-2.87h.43v1.49h0a.9.9,0,0,1,.81-.44c.59,0,1,.49,1,1.22a1.12,1.12,0,0,1-1.06,1.27.84.84,0,0,1-.8-.45h0l0,.39Zm.45-.95a.78.78,0,0,0,0,.16.66.66,0,0,0,.65.5c.45,0,.72-.36.72-.91s-.25-.88-.71-.88a.7.7,0,0,0-.66.53.88.88,0,0,0,0,.17Z" fill="#fff"/><path d="M421.64,291.14h.43v1.48h0a.81.81,0,0,1,.31-.3.84.84,0,0,1,.44-.13c.32,0,.83.2.83,1v1.41h-.43v-1.36c0-.38-.14-.71-.55-.71a.63.63,0,0,0-.58.43.66.66,0,0,0,0,.21v1.43h-.43Z" fill="#fff"/><path d="M338.82,299.41a.76.76,0,0,0,.82.82,1.5,1.5,0,0,0,.65-.12l.08.31a1.88,1.88,0,0,1-.79.15,1.1,1.1,0,0,1-1.17-1.2,1.15,1.15,0,0,1,1.11-1.28,1,1,0,0,1,1,1.12.88.88,0,0,1,0,.2Zm1.27-.31a.62.62,0,0,0-.6-.7.71.71,0,0,0-.66.7Z" fill="#fff"/><path d="M343.52,299.87c0,.25,0,.46,0,.65h-.38l0-.39h0a.88.88,0,0,1-.78.44c-.38,0-.82-.2-.82-1v-1.39H342v1.32c0,.45.14.75.53.75a.63.63,0,0,0,.57-.39.72.72,0,0,0,0-.22v-1.46h.43Z" fill="#fff"/><path d="M345.21,297.47a.25.25,0,0,1-.27.27.25.25,0,0,1-.26-.27.26.26,0,0,1,.27-.27A.25.25,0,0,1,345.21,297.47Zm-.48,3v-2.38h.43v2.38Z" fill="#fff"/><path d="M346.31,300.08a1.2,1.2,0,0,0,.57.17c.32,0,.46-.16.46-.35s-.12-.32-.44-.44-.63-.39-.63-.67a.73.73,0,0,1,.82-.7,1.35,1.35,0,0,1,.59.14l-.11.32a.92.92,0,0,0-.49-.14.35.35,0,0,0-.4.33c0,.19.15.28.46.4s.62.36.62.72-.32.71-.89.71a1.47,1.47,0,0,1-.67-.16Z" fill="#fff"/><path d="M348.81,298.79c0-.25,0-.45,0-.65h.38v.38h0a.82.82,0,0,1,.75-.43.69.69,0,0,1,.67.47h0a1.16,1.16,0,0,1,.26-.31.88.88,0,0,1,.53-.16c.31,0,.78.2.78,1v1.4h-.42v-1.35c0-.45-.17-.73-.52-.73a.57.57,0,0,0-.51.39.73.73,0,0,0,0,.22v1.47h-.43v-1.43c0-.37-.16-.65-.49-.65a.6.6,0,0,0-.54.43.76.76,0,0,0,0,.21v1.44h-.42Z" fill="#fff"/><path d="M355.55,299.31a1.16,1.16,0,0,1-1.19,1.26,1.13,1.13,0,0,1-1.14-1.22,1.16,1.16,0,0,1,1.18-1.26A1.13,1.13,0,0,1,355.55,299.31Zm-1.89,0c0,.53.3.92.72.92s.72-.39.72-.92-.2-.92-.71-.92S353.66,298.88,353.66,299.33Z" fill="#fff"/><path d="M358.64,297v2.88a5.72,5.72,0,0,0,0,.61h-.39l0-.41h0a.88.88,0,0,1-.81.46,1.08,1.08,0,0,1-1-1.2,1.14,1.14,0,0,1,1.07-1.28.78.78,0,0,1,.71.36h0V297Zm-.44,2.08a.55.55,0,0,0,0-.18.63.63,0,0,0-.62-.5c-.45,0-.71.39-.71.92s.23.87.7.87a.64.64,0,0,0,.63-.51.58.58,0,0,0,0-.19Z" fill="#fff"/><path d="M361.9,297.46v.68h.62v.33h-.62v1.28c0,.3.08.46.32.46l.25,0,0,.32a1.11,1.11,0,0,1-.38.06.65.65,0,0,1-.47-.18.9.9,0,0,1-.17-.62v-1.3h-.36v-.33h.36v-.57Z" fill="#fff"/><path d="M364,297.47a.25.25,0,0,1-.27.27.27.27,0,0,1,0-.54A.25.25,0,0,1,364,297.47Zm-.48,3v-2.38h.44v2.38Z" fill="#fff"/><path d="M365.13,298.79c0-.25,0-.45,0-.65h.39l0,.39h0a.88.88,0,0,1,.79-.44c.33,0,.84.19.84,1v1.42h-.43v-1.37c0-.38-.15-.7-.55-.7a.63.63,0,0,0-.61.64v1.43h-.44Z" fill="#fff"/><path d="M370.05,300.43a1.63,1.63,0,0,1-.69.14,1.13,1.13,0,0,1-1.18-1.21,1.21,1.21,0,0,1,1.28-1.27,1.65,1.65,0,0,1,.6.12l-.1.34a1,1,0,0,0-.5-.11.82.82,0,0,0-.84.89.81.81,0,0,0,.82.89,1.28,1.28,0,0,0,.53-.11Z" fill="#fff"/><path d="M371.52,297.47a.25.25,0,0,1-.27.27.27.27,0,0,1,0-.54A.25.25,0,0,1,371.52,297.47Zm-.48,3v-2.38h.44v2.38Z" fill="#fff"/><path d="M374.74,297v2.88a5.72,5.72,0,0,0,0,.61h-.39l0-.41h0a.88.88,0,0,1-.81.46,1.08,1.08,0,0,1-1-1.2,1.14,1.14,0,0,1,1.07-1.28.81.81,0,0,1,.72.36h0V297Zm-.43,2.08a1.1,1.1,0,0,0,0-.18.64.64,0,0,0-.63-.5c-.45,0-.71.39-.71.92s.23.87.7.87a.66.66,0,0,0,.64-.51,1.11,1.11,0,0,0,0-.19Z" fill="#fff"/><path d="M377.94,299.87a6.43,6.43,0,0,0,0,.65h-.39l0-.39h0a.92.92,0,0,1-.79.44c-.37,0-.82-.2-.82-1v-1.39h.43v1.32c0,.45.14.75.53.75a.63.63,0,0,0,.57-.39.51.51,0,0,0,0-.22v-1.46h.44Z" fill="#fff"/><path d="M379.14,298.79c0-.25,0-.45,0-.65h.39l0,.39h0a.88.88,0,0,1,.79-.44c.33,0,.84.19.84,1v1.42h-.43v-1.37c0-.38-.15-.7-.55-.7a.63.63,0,0,0-.61.64v1.43h-.44Z" fill="#fff"/><path d="M382.86,297.46v.68h.62v.33h-.62v1.28c0,.3.09.46.33.46l.25,0,0,.32a1.22,1.22,0,0,1-.39.06.61.61,0,0,1-.46-.18.85.85,0,0,1-.17-.62v-1.3h-.37v-.33h.37v-.57Z" fill="#fff"/><path d="M388,299.87c0,.25,0,.46,0,.65h-.38l0-.39h0a.88.88,0,0,1-.78.44c-.38,0-.82-.2-.82-1v-1.39h.43v1.32c0,.45.14.75.53.75a.63.63,0,0,0,.57-.39.72.72,0,0,0,0-.22v-1.46H388Z" fill="#fff"/><path d="M389.71,297.46v.68h.62v.33h-.62v1.28c0,.3.08.46.32.46l.25,0,0,.32a1.11,1.11,0,0,1-.38.06.65.65,0,0,1-.47-.18.9.9,0,0,1-.16-.62v-1.3h-.37v-.33h.37v-.57Z" fill="#fff"/><path d="M392.84,297h.43v3.49h-.43Z" fill="#fff"/><path d="M395.81,300.52l0-.3h0a.89.89,0,0,1-.73.35.68.68,0,0,1-.73-.68c0-.57.51-.89,1.43-.88V299a.49.49,0,0,0-.54-.55,1.28,1.28,0,0,0-.62.17l-.1-.28a1.5,1.5,0,0,1,.79-.21c.72,0,.9.49.9,1V300a3.25,3.25,0,0,0,0,.57Zm-.07-1.21c-.47,0-1,.07-1,.53a.38.38,0,0,0,.4.41.6.6,0,0,0,.58-.39.78.78,0,0,0,0-.14Z" fill="#fff"/><path d="M399.5,299.31a1.16,1.16,0,0,1-1.18,1.26,1.13,1.13,0,0,1-1.14-1.22,1.16,1.16,0,0,1,1.18-1.26A1.12,1.12,0,0,1,399.5,299.31Zm-1.89,0c0,.53.3.92.73.92s.72-.39.72-.92-.2-.92-.71-.92S397.61,298.88,397.61,299.33Z" fill="#fff"/><path d="M400.54,298.88c0-.28,0-.52,0-.74h.38v.47h0a.72.72,0,0,1,.66-.52h.12v.41h-.15a.61.61,0,0,0-.58.55,1.23,1.23,0,0,0,0,.2v1.27h-.42Z" fill="#fff"/><path d="M402.83,299.41a.75.75,0,0,0,.81.82,1.55,1.55,0,0,0,.66-.12l.07.31a1.88,1.88,0,0,1-.79.15,1.11,1.11,0,0,1-1.17-1.2,1.15,1.15,0,0,1,1.12-1.28,1,1,0,0,1,1,1.12c0,.09,0,.16,0,.2Zm1.26-.31a.61.61,0,0,0-.6-.7.71.71,0,0,0-.66.7Z" fill="#fff"/><path d="M405.78,299.41a.76.76,0,0,0,.81.82,1.55,1.55,0,0,0,.66-.12l.08.31a2,2,0,0,1-.8.15,1.11,1.11,0,0,1-1.17-1.2,1.16,1.16,0,0,1,1.12-1.28,1,1,0,0,1,1,1.12c0,.09,0,.16,0,.2Zm1.26-.31a.61.61,0,0,0-.59-.7.72.72,0,0,0-.67.7Z" fill="#fff"/><path d="M409,297.46v.68h.62v.33H409v1.28c0,.3.08.46.32.46l.25,0,0,.32a1.11,1.11,0,0,1-.38.06.65.65,0,0,1-.47-.18.9.9,0,0,1-.16-.62v-1.3h-.37v-.33h.37v-.57Z" fill="#fff"/><rect x="441.65" y="337.81" width="238.83" height="42.8" transform="translate(1121.38 719.61) rotate(-179.88)" fill="url(#Degradado_sin_nombre_13)"/><path d="M692.89,365.71a17.21,17.21,0,0,0,1.88-19.37,16.11,16.11,0,0,0-13.15-8.24c-.35,0-.71,0-1.08,0s-.72,0-1.07,0a16.18,16.18,0,0,0-13.2,8.17A17.2,17.2,0,0,0,668,365.64l12.38,15.23Z" fill="url(#Degradado_sin_nombre_14)"/><circle cx="680.5" cy="354.6" r="9.61" transform="translate(37.07 772.71) rotate(-60.54)" fill="url(#Degradado_sin_nombre_2)"/><circle cx="680.5" cy="354.6" r="6.99" transform="translate(-51.43 585.04) rotate(-45)" fill="url(#Degradado_sin_nombre_3)"/><text transform="translate(585.98 355.29)" font-size="9.33" fill="#1b1464" font-family="Montserrat-Bold, Montserrat Bold" font-weight="700">INFOG<tspan x="25.37" y="0" letter-spacing="0em">R</tspan><tspan x="30.43" y="0">APHIC</tspan></text><text transform="translate(561.18 368.16)" font-size="7.65" fill="#2e3192" font-family="Arcon-Regular, Arcon Regular" letter-spacing="0.07em">SU<tspan x="9.87" y="0" letter-spacing="0.07em">B</tspan><tspan x="14.53" y="0" letter-spacing="0.08em">TITLE GOES HERE</tspan></text><circle cx="442.6" cy="359.21" r="29.39" transform="matrix(0.17, -0.98, 0.98, 0.17, 11.69, 732.37)" fill="url(#Degradado_sin_nombre_14-2)"/><circle cx="442.6" cy="359.21" r="23.91" fill="url(#Degradado_sin_nombre_2-2)"/><circle cx="442.6" cy="359.21" r="21.42" transform="translate(11.87 732.57) rotate(-79.98)" fill="url(#Degradado_sin_nombre_3-2)"/><path d="M453.08,358.3a4.93,4.93,0,0,0-.87.09,6.55,6.55,0,0,0,.26-1.78,6.37,6.37,0,0,0-12.31-2.32,7.43,7.43,0,1,0-4.48,13.37h17.4a4.68,4.68,0,0,0,0-9.36Z" fill="url(#Degradado_sin_nombre_14-3)"/><rect x="502.31" y="263.63" width="178.18" height="42.8" transform="translate(1181.98 571.75) rotate(-179.84)" fill="url(#Degradado_sin_nombre_13-2)"/><path d="M692.89,291.53a17.2,17.2,0,0,0,1.88-19.36,16.15,16.15,0,0,0-13.15-8.25q-.52,0-1.08,0c-.36,0-.72,0-1.07,0a16.16,16.16,0,0,0-13.2,8.18A17.19,17.19,0,0,0,668,291.46l12.38,15.23Z" fill="url(#Degradado_sin_nombre_11)"/><path d="M690.11,280.45a9.61,9.61,0,1,0-9.64,9.58A9.62,9.62,0,0,0,690.11,280.45Z" fill="url(#Degradado_sin_nombre_2-3)"/><circle cx="680.5" cy="280.42" r="6.99" transform="translate(1.02 563.32) rotate(-45)" fill="url(#Degradado_sin_nombre_3-3)"/><text transform="translate(585.98 281.66)" font-size="9.33" fill="#1b1464" font-family="Montserrat-Bold, Montserrat Bold" font-weight="700">INFOG<tspan x="25.37" y="0" letter-spacing="0em">R</tspan><tspan x="30.43" y="0">APHIC</tspan></text><text transform="translate(561.18 294.54)" font-size="7.65" fill="#2e3192" font-family="Arcon-Regular, Arcon Regular" letter-spacing="0.07em">SU<tspan x="9.87" y="0" letter-spacing="0.07em">B</tspan><tspan x="14.53" y="0" letter-spacing="0.08em">TITLE GOES HERE</tspan></text><circle cx="509.43" cy="285.04" r="29.39" transform="translate(145.79 741.68) rotate(-80.7)" fill="url(#Degradado_sin_nombre_11-2)"/><circle cx="509.43" cy="285.04" r="23.91" transform="translate(-69.88 213.19) rotate(-22.16)" fill="url(#Degradado_sin_nombre_2-4)"/><circle cx="509.43" cy="285.04" r="21.42" transform="translate(-52.34 443.7) rotate(-45)" fill="url(#Degradado_sin_nombre_3-4)"/><path d="M510.19,271.66c-.22,0-.45,0-.67,0s-.45,0-.67,0c-6.58.44-10.25,7.87-7,13.58l2.71,4.7,4.91,8.5,4.9-8.5,2.72-4.7C520.43,279.53,516.76,272.1,510.19,271.66Zm-.67,11.66a2.92,2.92,0,1,1,2.92-2.92A2.92,2.92,0,0,1,509.52,283.32Z" fill="url(#Degradado_sin_nombre_11-3)"/><rect x="442.6" y="116.57" width="237.9" height="42.8" transform="translate(1123.09 275.95) rotate(180)" fill="url(#Degradado_sin_nombre_13-3)"/><path d="M692.92,144.18a17.19,17.19,0,0,0,1.83-19.37,16.16,16.16,0,0,0-13.17-8.21q-.54,0-1.08,0t-1.08,0a16.13,16.13,0,0,0-13.17,8.21,17.2,17.2,0,0,0,1.82,19.37l12.43,15.2Z" fill="url(#Degradado_sin_nombre_56)"/><circle cx="680.5" cy="133.11" r="9.61" transform="translate(340.48 737.41) rotate(-71.7)" fill="url(#Degradado_sin_nombre_2-5)"/><path d="M687.49,133.11a7,7,0,1,0-7,7A7,7,0,0,0,687.49,133.11Z" fill="url(#Degradado_sin_nombre_3-5)"/><text transform="translate(585.98 134.26)" font-size="9.33" fill="#1b1464" font-family="Montserrat-Bold, Montserrat Bold" font-weight="700">INFOG<tspan x="25.37" y="0" letter-spacing="0em">R</tspan><tspan x="30.43" y="0">APHIC</tspan></text><text transform="translate(561.18 147.14)" font-size="7.65" fill="#2e3192" font-family="Arcon-Regular, Arcon Regular" letter-spacing="0.07em">SU<tspan x="9.87" y="0" letter-spacing="0.07em">B</tspan><tspan x="14.53" y="0" letter-spacing="0.08em">TITLE GOES HERE</tspan></text><circle cx="442.6" cy="137.97" r="29.39" transform="translate(229.54 549.72) rotate(-79.95)" fill="url(#Degradado_sin_nombre_56-2)"/><circle cx="442.6" cy="137.97" r="23.91" fill="url(#Degradado_sin_nombre_2-6)"/><circle cx="442.6" cy="137.97" r="21.42" transform="translate(229.73 549.82) rotate(-79.98)" fill="url(#Degradado_sin_nombre_3-6)"/><rect x="448.32" y="125.53" width="4.67" height="24.89" fill="url(#Degradado_sin_nombre_56-3)"/><rect x="442.37" y="130.48" width="4.67" height="19.94" fill="url(#Degradado_sin_nombre_56-4)"/><rect x="436.43" y="140.82" width="4.67" height="9.6" fill="url(#Degradado_sin_nombre_56-5)"/><rect x="430.48" y="145.03" width="4.67" height="5.39" fill="url(#Degradado_sin_nombre_56-6)"/><rect x="502.32" y="190.11" width="178.18" height="42.8" transform="translate(1182.82 423.03) rotate(180)" fill="url(#Degradado_sin_nombre_13-4)"/><path d="M692.92,217.72a17.17,17.17,0,0,0,1.83-19.36,16.14,16.14,0,0,0-13.17-8.21c-.36,0-.72,0-1.08,0s-.72,0-1.08,0a16.11,16.11,0,0,0-13.17,8.21,17.19,17.19,0,0,0,1.82,19.36l12.43,15.2Z" fill="url(#Degradado_sin_nombre_10)"/><circle cx="680.5" cy="206.65" r="9.61" fill="url(#Degradado_sin_nombre_2-7)"/><circle cx="680.5" cy="206.65" r="6.99" fill="url(#Degradado_sin_nombre_3-7)"/><text transform="translate(585.98 207.96)" font-size="9.33" fill="#1b1464" font-family="Montserrat-Bold, Montserrat Bold" font-weight="700">INFOG<tspan x="25.37" y="0" letter-spacing="0em">R</tspan><tspan x="30.43" y="0">APHIC</tspan></text><text transform="translate(561.18 220.84)" font-size="7.65" fill="#2e3192" font-family="Arcon-Regular, Arcon Regular" letter-spacing="0.07em">SU<tspan x="9.87" y="0" letter-spacing="0.07em">B</tspan><tspan x="14.53" y="0" letter-spacing="0.08em">TITLE GOES HERE</tspan></text><circle cx="509.43" cy="211.52" r="29.39" transform="translate(-42.15 215.21) rotate(-22.93)" fill="url(#Degradado_sin_nombre_10-2)"/><circle cx="509.43" cy="211.52" r="23.91" transform="translate(219.6 680.83) rotate(-80.85)" fill="url(#Degradado_sin_nombre_2-8)"/><circle cx="509.43" cy="211.52" r="21.42" transform="translate(187.49 659.41) rotate(-76.84)" fill="url(#Degradado_sin_nombre_3-8)"/><path d="M498.36,214.1l5.31,5.89,5.43,6a.17.17,0,0,0,.25,0l5.43-6,5.3-5.89a.16.16,0,0,0-.12-.28h-5.14V205h-11.2v8.84h-5.14A.17.17,0,0,0,498.36,214.1Z" fill="url(#Degradado_sin_nombre_10-3)"/><rect x="503.62" y="201.56" width="11.2" height="1.81" fill="url(#Degradado_sin_nombre_10-4)"/><rect x="503.62" y="198.15" width="11.2" height="1.81" fill="url(#Degradado_sin_nombre_10-5)"/><rect x="69.52" y="337.81" width="243.35" height="42.8" transform="translate(-0.75 0.4) rotate(-0.12)" fill="url(#Degradado_sin_nombre_7)"/><path d="M57.11,365.71a17.21,17.21,0,0,1-1.88-19.37,16.11,16.11,0,0,1,13.15-8.24c.35,0,.71,0,1.08,0s.72,0,1.07,0a16.18,16.18,0,0,1,13.2,8.17A17.2,17.2,0,0,1,82,365.64L69.58,380.87Z" fill="url(#Degradado_sin_nombre_50)"/><circle cx="69.5" cy="354.6" r="9.61" transform="translate(-125.96 50.68) rotate(-21.66)" fill="url(#Degradado_sin_nombre_2-9)"/><circle cx="69.5" cy="354.6" r="6.99" transform="translate(-223.54 143.18) rotate(-43.1)" fill="url(#Degradado_sin_nombre_3-9)"/><text transform="translate(93.41 355.29)" font-size="9.33" fill="#2e3192" font-family="Montserrat-Bold, Montserrat Bold" font-weight="700">INFOG<tspan x="25.37" y="0" letter-spacing="0em">R</tspan><tspan x="30.43" y="0">APHIC</tspan></text><text transform="translate(93.41 368.16)" font-size="7.65" fill="#2e3192" font-family="Arcon-Regular, Arcon Regular" letter-spacing="0.07em">SU<tspan x="9.87" y="0" letter-spacing="0.07em">B</tspan><tspan x="14.53" y="0" letter-spacing="0.08em">TITLE GOES HERE</tspan></text><circle cx="316.03" cy="359.21" r="29.39" transform="translate(-161.44 328.67) rotate(-45)" fill="url(#Degradado_sin_nombre_50-2)"/><circle cx="316.03" cy="359.21" r="23.91" fill="url(#Degradado_sin_nombre_2-10)"/><circle cx="316.03" cy="359.21" r="21.42" transform="translate(-161.44 328.67) rotate(-45)" fill="url(#Degradado_sin_nombre_3-10)"/><path d="M309.17,343.86h12a1.93,1.93,0,0,1,1.93,1.93v1.05a0,0,0,0,1,0,0H307.24a0,0,0,0,1,0,0v-1.05A1.93,1.93,0,0,1,309.17,343.86Z" transform="translate(630.33 690.7) rotate(180)" fill="url(#Degradado_sin_nombre_50-3)"/><path d="M307.24,371.58h15.85a0,0,0,0,1,0,0v1.05a1.93,1.93,0,0,1-1.93,1.93h-12a1.93,1.93,0,0,1-1.93-1.93v-1.05A0,0,0,0,1,307.24,371.58Z" transform="translate(630.33 746.15) rotate(180)" fill="url(#Degradado_sin_nombre_50-4)"/><path d="M319.15,357.37l.06,0a4.35,4.35,0,0,0,2.18-3.77V348.1H308.94v5.46a4.36,4.36,0,0,0,2.17,3.77l.07,0a2.13,2.13,0,0,1,0,3.68l-.07,0a4.37,4.37,0,0,0-2.17,3.77v5.47h12.45v-5.47a4.36,4.36,0,0,0-2.18-3.77l-.06,0a2.13,2.13,0,0,1,0-3.68Zm-.92,11.09H312a3,3,0,0,1,2.92-2.2h.37A3.05,3.05,0,0,1,318.23,368.46Zm.27-12.19a3.37,3.37,0,0,0-1.25,1.29,2.17,2.17,0,0,1-1.89,1.12H315a2.15,2.15,0,0,1-1.89-1.12,3.32,3.32,0,0,0-1.26-1.29l-.07,0a3.08,3.08,0,0,1-1.53-2.67V352h9.89v1.61a3.09,3.09,0,0,1-1.54,2.67Z" fill="url(#Degradado_sin_nombre_50-5)"/><rect x="69.52" y="116.57" width="241.41" height="42.8" fill="url(#Degradado_sin_nombre_7-2)"/><path d="M57.09,144.18a17.2,17.2,0,0,1-1.82-19.37,16.13,16.13,0,0,1,13.17-8.21q.53,0,1.08,0c.36,0,.72,0,1.07,0a16.13,16.13,0,0,1,13.17,8.21,17.19,17.19,0,0,1-1.82,19.37l-12.42,15.2Z" fill="url(#Degradado_sin_nombre_9)"/><circle cx="69.52" cy="133.11" r="9.61" transform="translate(-47.6 39.12) rotate(-23.68)" fill="url(#Degradado_sin_nombre_2-11)"/><path d="M62.53,133.11a7,7,0,1,1,7,7A7,7,0,0,1,62.53,133.11Z" fill="url(#Degradado_sin_nombre_3-11)"/><text transform="translate(93.41 134.26)" font-size="9.33" fill="#2e3192" font-family="Montserrat-Bold, Montserrat Bold" font-weight="700">INFOG<tspan x="25.37" y="0" letter-spacing="0em">R</tspan><tspan x="30.43" y="0">APHIC</tspan></text><text transform="translate(93.41 147.14)" font-size="7.65" fill="#2e3192" font-family="Arcon-Regular, Arcon Regular" letter-spacing="0.07em">SU<tspan x="9.87" y="0" letter-spacing="0.07em">B</tspan><tspan x="14.53" y="0" letter-spacing="0.08em">TITLE GOES HERE</tspan></text><circle cx="316.03" cy="137.97" r="29.39" transform="translate(-5 263.88) rotate(-45)" fill="url(#Degradado_sin_nombre_9-2)"/><circle cx="316.03" cy="137.97" r="23.91" fill="url(#Degradado_sin_nombre_2-12)"/><circle cx="316.03" cy="137.97" r="21.42" transform="translate(-5 263.88) rotate(-45)" fill="url(#Degradado_sin_nombre_3-12)"/><path d="M323.87,129.06a8.84,8.84,0,0,0-.25-.88c-.08-.22-.17-.44-.26-.66s-.17-.35-.26-.52a4.45,4.45,0,0,0-.26-.48c-.08-.14-.17-.26-.25-.39l-.26-.39-.26-.31c-.09-.11-.17-.22-.26-.32s-.17-.17-.26-.26l-.25-.26-.26-.25-.26-.21-.26-.2-.25-.2-.26-.17-.26-.16-.26-.16-.25-.13L319,123l-.26-.13-.26-.1-.26-.1-.25-.1-.26-.08-.26-.07-.26-.07-.25-.07-.26,0-.26,0-.26,0-.25,0-.26,0h-.78l-.25,0h-.26l-.26,0h-.26l-.25,0-.26,0-.26,0-.26.07-.25.06-.26.08-.26.09-.26.08-.26.11-.25.11L311,123l-.26.13-.26.14-.25.16-.26.16-.26.18-.26.19-.25.2-.26.23-.26.23c-.09.08-.17.17-.26.26l-.26.27a3.76,3.76,0,0,0-.25.31,4,4,0,0,0-.26.32l-.26.37-.26.4-.25.45c-.1.18-.18.36-.26.54s-.18.43-.26.66a8.34,8.34,0,0,0-.26.85c-.06.27-.12.54-.16.81a9.53,9.53,0,0,0,.16,3.51,8.89,8.89,0,0,0,.26.88c.08.22.16.43.26.65s.16.36.26.54.16.31.25.46l.26.4c.08.13.17.25.26.37l.26.33.25.3.23.25,0,0c.09.1.17.2.26.29l.26.3.26.33.25.35.26.4c.09.14.18.28.26.42s.17.35.26.52.17.39.25.59a6.34,6.34,0,0,1,.26.73,9.1,9.1,0,0,1,.26,1.15,8.17,8.17,0,0,1,.11,1.31v.52h2V140.6c0-.57,0-1.15-.07-1.72-.05-.75-.14-1.49-.26-2.23-.07-.44-.16-.89-.25-1.33s-.17-.7-.26-1-.17-.61-.26-.91-.17-.51-.26-.76-.17-.47-.26-.71-.12-.31-.18-.46h-.14l-.19,0a.77.77,0,0,1-.26-.07,1.35,1.35,0,0,1-.26-.15,1.29,1.29,0,0,1-.25-.27,1.13,1.13,0,0,1,0-1.31,1.29,1.29,0,0,1,.25-.27,1.35,1.35,0,0,1,.26-.15.77.77,0,0,1,.26-.07l.19,0h.07a1.23,1.23,0,0,1,.77.36,1.29,1.29,0,0,1,.26.42,1.09,1.09,0,0,1,0,.77,1.19,1.19,0,0,1-.26.42,1.29,1.29,0,0,1-.18.16l.18.47c.09.23.18.47.26.7s.18.51.26.77.17.6.25.9.18.69.26,1,.18.87.26,1.31c.11.66.2,1.33.26,2s.1,1.44.1,2.16v3.86h2.63V140.6c0-.72,0-1.45.1-2.17s.15-1.34.26-2c.07-.44.16-.88.26-1.31s.16-.7.25-1,.17-.6.26-.9.17-.51.26-.77.17-.47.26-.7l.15-.4-.15-.13a1.23,1.23,0,0,1-.26-.34,1.21,1.21,0,0,1,0-1.13,1.23,1.23,0,0,1,.26-.34,1.14,1.14,0,0,1,.25-.18,1.39,1.39,0,0,1,.26-.1,1.19,1.19,0,0,1,.26-.05h.07l.19,0a1.22,1.22,0,0,1,.26.06,2,2,0,0,1,.25.14,1,1,0,0,1,.26.25,1.2,1.2,0,0,1,.26.61.81.81,0,0,1,0,.16.92.92,0,0,1,0,.16,1.2,1.2,0,0,1-.26.6,1,1,0,0,1-.26.25,1,1,0,0,1-.51.2l-.19,0h-.17c-.06.13-.11.26-.16.39l-.26.71-.25.76c-.1.3-.18.6-.26.91s-.18.7-.26,1-.18.89-.26,1.33c-.12.74-.2,1.48-.25,2.23,0,.57-.07,1.15-.07,1.72v3.86h2v-.52a9.07,9.07,0,0,1,.12-1.38,8.28,8.28,0,0,1,.26-1.2c.07-.25.16-.5.25-.74s.17-.38.26-.57.17-.34.26-.5a3.78,3.78,0,0,1,.26-.43c.08-.13.17-.25.25-.37s.17-.24.26-.35l.26-.3.26-.28.12-.13.13-.15.26-.28a3.73,3.73,0,0,0,.26-.3l.26-.34.26-.35c.09-.13.17-.28.25-.42s.18-.3.26-.46.18-.35.26-.53.18-.44.26-.66a9,9,0,0,0,.25-5.14Z" fill="url(#Degradado_sin_nombre_9-3)"/><polygon points="318.71 145.89 318.6 145.89 318.49 145.89 318.38 145.89 318.27 145.89 318.16 145.89 318.05 145.89 317.93 145.89 317.82 145.89 317.71 145.89 317.6 145.89 317.49 145.89 317.38 145.89 317.27 145.89 317.15 145.89 317.04 145.89 316.93 145.89 316.82 145.89 316.71 145.89 316.6 145.89 316.49 145.89 316.38 145.89 316.26 145.89 316.15 145.89 316.04 145.89 315.93 145.89 315.82 145.89 315.71 145.89 315.6 145.89 315.48 145.89 315.37 145.89 315.26 145.89 315.15 145.89 315.04 145.89 314.93 145.89 314.82 145.89 314.7 145.89 314.59 145.89 314.48 145.89 314.37 145.89 314.26 145.89 314.15 145.89 314.04 145.89 313.93 145.89 313.81 145.89 313.7 145.89 313.59 145.89 313.48 145.89 313.37 145.89 313.26 145.89 313.15 145.89 313.04 145.89 312.92 145.89 312.81 145.89 312.7 145.89 312.59 145.89 312.48 145.89 312.37 145.89 312.25 145.89 312.14 145.89 312.03 145.89 311.92 145.89 311.81 145.89 311.7 145.89 311.59 145.89 311.48 145.89 311.36 145.89 311.25 145.89 311.14 145.89 311.03 145.89 311.03 148.63 311.14 148.63 311.25 148.63 311.36 148.63 311.48 148.63 311.59 148.63 311.7 148.63 311.81 148.63 311.92 148.63 312.03 148.63 312.14 148.63 312.25 148.63 312.37 148.63 312.48 148.63 312.59 148.63 312.7 148.63 312.81 148.63 312.92 148.63 313.04 148.63 313.15 148.63 313.26 148.63 313.37 148.63 313.48 148.63 313.59 148.63 313.7 148.63 313.81 148.63 313.93 148.63 314.04 148.63 314.15 148.63 314.26 148.63 314.37 148.63 314.48 148.63 314.59 148.63 314.7 148.63 314.82 148.63 314.93 148.63 315.04 148.63 315.15 148.63 315.26 148.63 315.37 148.63 315.48 148.63 315.6 148.63 315.71 148.63 315.82 148.63 315.93 148.63 316.04 148.63 316.15 148.63 316.26 148.63 316.38 148.63 316.49 148.63 316.6 148.63 316.71 148.63 316.82 148.63 316.93 148.63 317.04 148.63 317.15 148.63 317.27 148.63 317.38 148.63 317.49 148.63 317.6 148.63 317.71 148.63 317.82 148.63 317.93 148.63 318.05 148.63 318.16 148.63 318.27 148.63 318.38 148.63 318.49 148.63 318.6 148.63 318.71 148.63 318.82 148.63 318.94 148.63 318.94 145.89 318.82 145.89 318.71 145.89" fill="url(#Degradado_sin_nombre_9-4)"/><path d="M316.49,150.06h-3.1v.76a1.49,1.49,0,0,0,.05.36s0,.1,0,.14,0,.09,0,.13l0,.09.05.08a.2.2,0,0,0,0,.08l0,.06,0,.05.05.06,0,0,0,.05.05,0s0,0,0,0l0,0,0,0,.05,0,0,0,.05,0,0,0,.05,0,0,0,.05,0h0l.05,0h.09l0,0h.76l.05,0h.09l0,0h0l0,0,.05,0,0,0,0,0,0,0,.05,0,0,0,.05,0s0,0,0,0l.05,0,0,0,.05-.05,0,0,.05-.06,0-.05.05-.06a.59.59,0,0,1,0-.08l0-.08,0-.09s0-.08.05-.13,0-.09,0-.14a1.47,1.47,0,0,0,0-.36v-.76h-.08Z" fill="url(#Degradado_sin_nombre_9-5)"/><rect x="69.52" y="263.63" width="178.18" height="42.8" transform="translate(-0.81 0.45) rotate(-0.16)" fill="url(#Degradado_sin_nombre_7-3)"/><path d="M57.11,291.53a17.2,17.2,0,0,1-1.88-19.36,16.15,16.15,0,0,1,13.15-8.25q.53,0,1.08,0c.36,0,.72,0,1.07,0a16.16,16.16,0,0,1,13.2,8.18A17.19,17.19,0,0,1,82,291.46L69.58,306.69Z" fill="url(#Degradado_sin_nombre_6)"/><path d="M59.89,280.45A9.61,9.61,0,1,1,69.53,290,9.62,9.62,0,0,1,59.89,280.45Z" fill="url(#Degradado_sin_nombre_2-13)"/><circle cx="69.5" cy="280.42" r="6.99" transform="translate(-172.85 123.16) rotate(-43.1)" fill="url(#Degradado_sin_nombre_3-13)"/><text transform="translate(93.41 281.66)" font-size="9.33" fill="#2e3192" font-family="Montserrat-Bold, Montserrat Bold" font-weight="700">INFOG<tspan x="25.37" y="0" letter-spacing="0em">R</tspan><tspan x="30.43" y="0">APHIC</tspan></text><text transform="translate(93.41 294.54)" font-size="7.65" fill="#2e3192" font-family="Arcon-Regular, Arcon Regular" letter-spacing="0.07em">SU<tspan x="9.87" y="0" letter-spacing="0.07em">B</tspan><tspan x="14.53" y="0" letter-spacing="0.08em">TITLE GOES HERE</tspan></text><circle cx="252.87" cy="285.04" r="29.39" transform="translate(-83.18 464.65) rotate(-76.55)" fill="url(#Degradado_sin_nombre_6-2)"/><circle cx="252.87" cy="285.04" r="23.91" transform="translate(-83.08 464.84) rotate(-76.58)" fill="url(#Degradado_sin_nombre_2-14)"/><circle cx="252.87" cy="285.04" r="21.42" transform="translate(-83.03 464.92) rotate(-76.59)" fill="url(#Degradado_sin_nombre_3-14)"/><path d="M265.84,281.47h0a1.26,1.26,0,0,1-.92-1.14c0-.25-.05-.49-.09-.73a1.27,1.27,0,0,1,.62-1.33,1.28,1.28,0,0,0,.48-1.74l-.77-1.37a1.28,1.28,0,0,0-1.73-.48h0a1.28,1.28,0,0,1-1.47-.15l-.57-.45a1.28,1.28,0,0,1-.51-1.39h0a1.26,1.26,0,0,0-.89-1.56l-1.51-.42a1.25,1.25,0,0,0-1.56.88h0a1.29,1.29,0,0,1-1.15.93c-.24,0-.49.05-.72.09a1.28,1.28,0,0,1-1.34-.63,1.28,1.28,0,0,0-1.74-.48l-1.36.78a1.26,1.26,0,0,0-.48,1.73,1.31,1.31,0,0,1-.16,1.47,6.26,6.26,0,0,0-.45.57,1.29,1.29,0,0,1-1.38.51h0a1.27,1.27,0,0,0-1.57.88l-.42,1.51a1.28,1.28,0,0,0,.88,1.57h0a1.28,1.28,0,0,1,.93,1.15q0,.36.09.72a1.29,1.29,0,0,1-.62,1.34h0a1.26,1.26,0,0,0-.48,1.73l.77,1.37a1.26,1.26,0,0,0,1.73.48,1.27,1.27,0,0,1,1.47.16l.57.45a1.29,1.29,0,0,1,.51,1.38h0a1.28,1.28,0,0,0,.88,1.57l1.52.42a1.26,1.26,0,0,0,1.56-.89h0a1.28,1.28,0,0,1,1.15-.92l.72-.09a1.29,1.29,0,0,1,1.34.62,1.27,1.27,0,0,0,1.73.48l1.37-.77a1.28,1.28,0,0,0,.48-1.74,1.29,1.29,0,0,1,.16-1.46c.16-.19.31-.38.45-.58a1.26,1.26,0,0,1,1.38-.5h0a1.27,1.27,0,0,0,1.57-.89l.42-1.51A1.27,1.27,0,0,0,265.84,281.47Zm-4.31.94a5.29,5.29,0,1,1-3.68-6.51A5.28,5.28,0,0,1,261.53,282.41Z" fill="url(#Degradado_sin_nombre_6-3)"/><path d="M257,279a2.06,2.06,0,1,0,1.43,2.54A2.05,2.05,0,0,0,257,279Z" fill="url(#Degradado_sin_nombre_8)"/><path d="M257,279a2.06,2.06,0,1,0,1.43,2.54A2.05,2.05,0,0,0,257,279Z" fill="url(#Degradado_sin_nombre_8-2)"/><path d="M257,279a2.06,2.06,0,1,0,1.43,2.54A2.05,2.05,0,0,0,257,279Z" fill="url(#Degradado_sin_nombre_6-4)"/><path d="M252.92,294.56a.84.84,0,0,0,.46-1.09l-.38-1a.83.83,0,0,0-1.08-.46.86.86,0,0,1-.94-.23,3.51,3.51,0,0,0-.33-.34.83.83,0,0,1-.21-.94h0a.84.84,0,0,0-.43-1.1l-.95-.4a.83.83,0,0,0-1.09.44h0a.85.85,0,0,1-.83.5h-.47a.83.83,0,0,1-.81-.52.85.85,0,0,0-1.09-.46l-1,.38a.83.83,0,0,0-.46,1.08.86.86,0,0,1-.23.94l-.34.33a.85.85,0,0,1-.95.21h0a.83.83,0,0,0-1.09.44l-.4.94a.83.83,0,0,0,.44,1.09h0a.85.85,0,0,1,.5.83c0,.16,0,.32,0,.47a.84.84,0,0,1-.52.82.83.83,0,0,0-.46,1.08l.38.95a.83.83,0,0,0,1.08.47h0a.82.82,0,0,1,.94.23l.33.34a.83.83,0,0,1,.21.94h0a.83.83,0,0,0,.44,1.09l.94.41a.83.83,0,0,0,1.09-.44h0a.83.83,0,0,1,.83-.5H247a.85.85,0,0,1,.82.52.83.83,0,0,0,1.08.47l1-.39a.82.82,0,0,0,.46-1.08.86.86,0,0,1,.23-.94,2.65,2.65,0,0,0,.34-.33.85.85,0,0,1,1-.21h0a.82.82,0,0,0,1.09-.43l.4-.95a.83.83,0,0,0-.43-1.09h0a.85.85,0,0,1-.51-.82,3.85,3.85,0,0,0,0-.48A.83.83,0,0,1,252.92,294.56ZM250,296.9a3.46,3.46,0,1,1-1.82-4.54A3.45,3.45,0,0,1,250,296.9Z" fill="url(#Degradado_sin_nombre_6-5)"/><path d="M247.37,294.3a1.35,1.35,0,1,0,.71,1.77A1.36,1.36,0,0,0,247.37,294.3Z" fill="url(#Degradado_sin_nombre_8-3)"/><path d="M247.37,294.3a1.35,1.35,0,1,0,.71,1.77A1.36,1.36,0,0,0,247.37,294.3Z" fill="url(#Degradado_sin_nombre_8-4)"/><path d="M247.37,294.3a1.35,1.35,0,1,0,.71,1.77A1.36,1.36,0,0,0,247.37,294.3Z" fill="url(#Degradado_sin_nombre_6-6)"/><rect x="69.52" y="190.11" width="178.18" height="42.8" fill="url(#Degradado_sin_nombre_7-4)"/><path d="M57.09,217.72a17.19,17.19,0,0,1-1.82-19.36,16.11,16.11,0,0,1,13.17-8.21c.35,0,.71,0,1.08,0s.72,0,1.07,0a16.11,16.11,0,0,1,13.17,8.21,17.17,17.17,0,0,1-1.82,19.36l-12.42,15.2Z" fill="url(#Degradado_sin_nombre_54)"/><circle cx="69.52" cy="206.65" r="9.61" fill="url(#Degradado_sin_nombre_2-15)"/><circle cx="69.52" cy="206.65" r="6.99" fill="url(#Degradado_sin_nombre_3-15)"/><text transform="translate(93.41 207.96)" font-size="9.33" fill="#2e3192" font-family="Montserrat-Bold, Montserrat Bold" font-weight="700">INFOG<tspan x="25.37" y="0" letter-spacing="0em">R</tspan><tspan x="30.43" y="0">APHIC</tspan></text><text transform="translate(93.41 220.84)" font-size="7.65" fill="#2e3192" font-family="Arcon-Regular, Arcon Regular" letter-spacing="0.07em">SU<tspan x="9.87" y="0" letter-spacing="0.07em">B</tspan><tspan x="14.53" y="0" letter-spacing="0.08em">TITLE GOES HERE</tspan></text><circle cx="252.87" cy="211.52" r="29.39" transform="translate(-75.5 240.76) rotate(-45)" fill="url(#Degradado_sin_nombre_54-2)"/><circle cx="252.87" cy="211.52" r="23.91" transform="translate(-75.5 240.76) rotate(-45)" fill="url(#Degradado_sin_nombre_2-16)"/><circle cx="252.87" cy="211.52" r="21.42" transform="translate(-75.5 240.76) rotate(-45)" fill="url(#Degradado_sin_nombre_3-16)"/><path d="M258.69,197.61H244.4a1.06,1.06,0,0,0-1.06,1.06v26.17a1.06,1.06,0,0,0,1.06,1.06h14.29a1.05,1.05,0,0,0,1.06-1.06V198.67A1.05,1.05,0,0,0,258.69,197.61Zm-7,1.24a.45.45,0,1,1-.45.44A.44.44,0,0,1,251.69,198.85Zm-.14,26.32a1,1,0,1,1,0-1.9.95.95,0,0,1,0,1.9Zm7.11-2.45H244.43V200.33h14.23Z" fill="url(#Degradado_sin_nombre_54-3)"/><polygon points="256.61 207.68 256.61 206.26 257.55 206.26 257.55 203.24 245.73 203.24 245.73 206.26 256.07 206.26 256.61 207.68" fill="url(#Degradado_sin_nombre_54-4)"/><polygon points="246.68 213.1 247.21 211.68 257.55 211.68 257.55 208.66 245.73 208.66 245.73 211.68 246.68 211.68 246.68 213.1" fill="url(#Degradado_sin_nombre_54-5)"/><image width="500" height="500" transform="translate(354.84 177.72) scale(0.08 0.07)" xlink:href="Others/assets/dseom-logo.png"/></g></g></svg>